<svg xmlns="http://www.w3.org/2000/svg" xmlns:xlink="http://www.w3.org/1999/xlink" width="500" zoomAndPan="magnify" viewBox="0 0 375 374.999991" height="500" preserveAspectRatio="xMidYMid meet" version="1.0"><defs><g/><clipPath id="f6e70cbb21"><path d="M 55.894531 126.554688 L 139 126.554688 L 139 248.804688 L 55.894531 248.804688 Z M 55.894531 126.554688 " clip-rule="nonzero"/></clipPath></defs><g clip-path="url(#f6e70cbb21)"><path fill="#2585f8" d="M 108.996094 126.570312 L 124.65625 126.570312 C 126.445312 126.570312 127.894531 128.015625 127.902344 129.804688 C 127.902344 129.8125 127.902344 129.824219 127.902344 129.832031 L 128.644531 140.429688 C 128.660156 140.65625 128.820312 140.847656 129.042969 140.90625 C 132.417969 141.789062 135.648438 143.027344 138.691406 144.582031 C 138.691406 144.582031 138.695312 144.582031 138.695312 144.585938 C 138.988281 144.734375 139.070312 145.113281 138.871094 145.371094 L 131.457031 155.113281 C 131.308594 155.308594 131.046875 155.375 130.824219 155.277344 C 129.558594 154.726562 128.25 154.25 126.914062 153.847656 C 125.203125 153.335938 123.433594 152.949219 121.625 152.703125 C 120.539062 152.554688 119.4375 152.457031 118.324219 152.410156 C 117.828125 152.386719 117.328125 152.378906 116.824219 152.378906 C 115.863281 152.378906 114.90625 152.417969 113.964844 152.492188 C 103.679688 153.320312 94.648438 158.578125 88.777344 166.359375 C 84.335938 172.238281 81.703125 179.5625 81.703125 187.5 C 81.703125 206.894531 97.429688 222.617188 116.824219 222.617188 C 121.800781 222.617188 126.535156 221.585938 130.824219 219.71875 C 131.046875 219.621094 131.308594 219.691406 131.457031 219.882812 L 132.152344 220.800781 L 138.867188 229.617188 C 139.066406 229.882812 138.984375 230.261719 138.691406 230.414062 C 138.65625 230.433594 138.621094 230.449219 138.585938 230.46875 C 138.535156 230.492188 138.488281 230.515625 138.441406 230.539062 C 136.914062 231.308594 135.339844 232 133.726562 232.605469 C 132.199219 233.175781 130.636719 233.671875 129.042969 234.089844 C 128.820312 234.148438 128.660156 234.339844 128.644531 234.566406 L 127.902344 245.164062 C 127.902344 245.171875 127.902344 245.183594 127.902344 245.191406 C 127.894531 246.980469 126.445312 248.425781 124.65625 248.425781 L 108.996094 248.425781 C 107.207031 248.425781 105.753906 246.980469 105.75 245.191406 C 105.75 245.183594 105.746094 245.171875 105.746094 245.164062 L 105.007812 234.566406 C 104.992188 234.339844 104.832031 234.148438 104.609375 234.089844 C 100.316406 232.96875 96.257812 231.269531 92.519531 229.078125 C 92.324219 228.964844 92.074219 228.984375 91.902344 229.136719 L 83.882812 236.109375 C 83.875 236.113281 83.867188 236.121094 83.859375 236.128906 C 82.59375 237.386719 80.542969 237.382812 79.28125 236.117188 L 68.207031 225.042969 C 66.941406 223.78125 66.9375 221.730469 68.195312 220.460938 C 68.203125 220.457031 68.210938 220.449219 68.214844 220.441406 L 75.1875 212.421875 C 75.335938 212.25 75.359375 212 75.242188 211.800781 C 73.054688 208.0625 71.355469 204.007812 70.234375 199.714844 C 70.175781 199.492188 69.984375 199.332031 69.753906 199.316406 L 59.160156 198.578125 C 59.148438 198.574219 59.140625 198.574219 59.132812 198.574219 C 57.34375 198.566406 55.898438 197.117188 55.898438 195.328125 L 55.898438 179.667969 C 55.898438 177.878906 57.34375 176.429688 59.132812 176.421875 C 59.140625 176.421875 59.148438 176.421875 59.160156 176.417969 L 69.753906 175.679688 C 69.984375 175.664062 70.175781 175.503906 70.234375 175.28125 C 71.355469 170.988281 73.054688 166.933594 75.242188 163.191406 C 75.359375 162.996094 75.335938 162.746094 75.1875 162.574219 L 74.011719 161.222656 L 68.214844 154.554688 C 68.210938 154.546875 68.203125 154.539062 68.195312 154.535156 C 66.9375 153.265625 66.941406 151.214844 68.207031 149.953125 L 79.28125 138.878906 C 80.542969 137.613281 82.59375 137.609375 83.859375 138.867188 C 83.867188 138.875 83.875 138.882812 83.882812 138.886719 L 91.902344 145.859375 C 92.074219 146.011719 92.324219 146.03125 92.519531 145.917969 C 95.75 144.027344 99.21875 142.5 102.871094 141.398438 C 103.445312 141.222656 104.023438 141.058594 104.609375 140.90625 C 104.832031 140.847656 104.992188 140.65625 105.007812 140.429688 L 105.117188 138.859375 L 105.207031 137.546875 L 105.484375 133.621094 L 105.746094 129.832031 C 105.746094 129.824219 105.75 129.8125 105.75 129.804688 C 105.753906 128.015625 107.207031 126.570312 108.996094 126.570312 " fill-opacity="1" fill-rule="nonzero"/></g><g fill="#ffffff" fill-opacity="1"><g transform="translate(101.268161, 190.637516)"><g><path d="M 9.921875 0 L 9.921875 -21.6875 L 1.1875 -21.6875 L 1.1875 -27.546875 L 24.921875 -27.546875 L 24.921875 -21.6875 L 16.171875 -21.6875 L 16.171875 0 Z M 9.921875 0 "/></g></g></g><g fill="#ffffff" fill-opacity="1"><g transform="translate(127.354374, 190.637516)"><g><path d="M 3.3125 0 L 3.3125 -27.546875 L 21.40625 -27.546875 L 21.40625 -22.28125 L 9.53125 -22.28125 L 9.53125 -16.5625 L 20.34375 -16.5625 L 20.34375 -11.328125 L 9.53125 -11.328125 L 9.53125 -5.3125 L 21.84375 -5.3125 L 21.84375 0 Z M 3.3125 0 "/></g></g></g><g fill="#ffffff" fill-opacity="1"><g transform="translate(151.197881, 190.637516)"><g><path d="M 15.9375 0.546875 C 13.15625 0.546875 10.6875 -0.0625 8.53125 -1.28125 C 6.382812 -2.5 4.707031 -4.179688 3.5 -6.328125 C 2.289062 -8.484375 1.6875 -10.96875 1.6875 -13.78125 C 1.6875 -16.582031 2.289062 -19.054688 3.5 -21.203125 C 4.707031 -23.359375 6.378906 -25.046875 8.515625 -26.265625 C 10.660156 -27.492188 13.125 -28.109375 15.90625 -28.109375 C 18.238281 -28.109375 20.375 -27.660156 22.3125 -26.765625 C 24.257812 -25.867188 25.894531 -24.609375 27.21875 -22.984375 C 28.539062 -21.359375 29.460938 -19.441406 29.984375 -17.234375 L 23.53125 -17.234375 C 23.007812 -18.753906 22.078125 -19.953125 20.734375 -20.828125 C 19.398438 -21.710938 17.851562 -22.15625 16.09375 -22.15625 C 14.550781 -22.15625 13.164062 -21.800781 11.9375 -21.09375 C 10.71875 -20.382812 9.765625 -19.398438 9.078125 -18.140625 C 8.398438 -16.878906 8.0625 -15.425781 8.0625 -13.78125 C 8.0625 -12.125 8.398438 -10.664062 9.078125 -9.40625 C 9.765625 -8.144531 10.710938 -7.160156 11.921875 -6.453125 C 13.128906 -5.742188 14.507812 -5.390625 16.0625 -5.390625 C 17.875 -5.390625 19.460938 -5.851562 20.828125 -6.78125 C 22.191406 -7.71875 23.160156 -8.972656 23.734375 -10.546875 L 30.1875 -10.546875 C 29.738281 -8.316406 28.84375 -6.367188 27.5 -4.703125 C 26.164062 -3.035156 24.507812 -1.742188 22.53125 -0.828125 C 20.550781 0.0859375 18.351562 0.546875 15.9375 0.546875 Z M 15.9375 0.546875 "/></g></g></g><g fill="#ffffff" fill-opacity="1"><g transform="translate(182.949867, 190.637516)"><g><path d="M 20.34375 0 L 20.34375 -11.09375 L 9.5625 -11.09375 L 9.5625 0 L 3.3125 0 L 3.3125 -27.546875 L 9.5625 -27.546875 L 9.5625 -16.96875 L 20.34375 -16.96875 L 20.34375 -27.546875 L 26.609375 -27.546875 L 26.609375 0 Z M 20.34375 0 "/></g></g></g><g fill="#2585f8" fill-opacity="1"><g transform="translate(103.394631, 212.468703)"><g><path d="M 6.859375 0.265625 C 5.710938 0.265625 4.71875 0.0703125 3.875 -0.3125 C 3.039062 -0.707031 2.394531 -1.253906 1.9375 -1.953125 C 1.476562 -2.648438 1.242188 -3.460938 1.234375 -4.390625 L 3.03125 -4.390625 C 3.050781 -3.484375 3.410156 -2.765625 4.109375 -2.234375 C 4.816406 -1.710938 5.734375 -1.453125 6.859375 -1.453125 C 7.859375 -1.453125 8.65625 -1.648438 9.25 -2.046875 C 9.84375 -2.441406 10.140625 -2.992188 10.140625 -3.703125 C 10.140625 -4.367188 9.851562 -4.898438 9.28125 -5.296875 C 8.707031 -5.703125 7.773438 -6.054688 6.484375 -6.359375 C 4.722656 -6.785156 3.429688 -7.328125 2.609375 -7.984375 C 1.796875 -8.648438 1.390625 -9.535156 1.390625 -10.640625 C 1.390625 -11.847656 1.847656 -12.804688 2.765625 -13.515625 C 3.691406 -14.222656 4.9375 -14.578125 6.5 -14.578125 C 8.113281 -14.578125 9.382812 -14.175781 10.3125 -13.375 C 11.25 -12.570312 11.722656 -11.472656 11.734375 -10.078125 L 9.953125 -10.078125 C 9.941406 -10.941406 9.625 -11.617188 9 -12.109375 C 8.382812 -12.609375 7.550781 -12.859375 6.5 -12.859375 C 5.476562 -12.859375 4.675781 -12.65625 4.09375 -12.25 C 3.519531 -11.851562 3.234375 -11.316406 3.234375 -10.640625 C 3.234375 -10.046875 3.5 -9.546875 4.03125 -9.140625 C 4.570312 -8.742188 5.539062 -8.375 6.9375 -8.03125 C 8.757812 -7.582031 10.054688 -7.019531 10.828125 -6.34375 C 11.609375 -5.675781 12 -4.816406 12 -3.765625 C 12 -2.523438 11.53125 -1.539062 10.59375 -0.8125 C 9.664062 -0.09375 8.421875 0.265625 6.859375 0.265625 Z M 6.859375 0.265625 "/></g></g></g><g fill="#2585f8" fill-opacity="1"><g transform="translate(123.171548, 212.468703)"><g><path d="M 11.46875 0 L 11.46875 -6.4375 L 3.890625 -6.4375 L 3.890625 0 L 2.09375 0 L 2.09375 -14.3125 L 3.890625 -14.3125 L 3.890625 -8.15625 L 11.46875 -8.15625 L 11.46875 -14.3125 L 13.28125 -14.3125 L 13.28125 0 Z M 11.46875 0 "/></g></g></g><g fill="#2585f8" fill-opacity="1"><g transform="translate(145.075178, 212.468703)"><g><path d="M 2.09375 0 L 2.09375 -14.3125 L 10.78125 -14.3125 L 10.78125 -12.640625 L 3.890625 -12.640625 L 3.890625 -8.125 L 10.265625 -8.125 L 10.265625 -6.46875 L 3.890625 -6.46875 L 3.890625 -1.671875 L 11 -1.671875 L 11 0 Z M 2.09375 0 "/></g></g></g><g fill="#2585f8" fill-opacity="1"><g transform="translate(163.952338, 212.468703)"><g><path d="M 2.09375 0 L 2.09375 -14.3125 L 7.03125 -14.3125 C 8.507812 -14.3125 9.796875 -14.007812 10.890625 -13.40625 C 11.984375 -12.800781 12.835938 -11.960938 13.453125 -10.890625 C 14.066406 -9.816406 14.375 -8.570312 14.375 -7.15625 C 14.375 -5.75 14.066406 -4.507812 13.453125 -3.4375 C 12.835938 -2.363281 11.984375 -1.519531 10.890625 -0.90625 C 9.796875 -0.300781 8.507812 0 7.03125 0 Z M 3.890625 -1.71875 L 7.03125 -1.71875 C 8.125 -1.71875 9.082031 -1.945312 9.90625 -2.40625 C 10.726562 -2.863281 11.367188 -3.5 11.828125 -4.3125 C 12.296875 -5.132812 12.53125 -6.082031 12.53125 -7.15625 C 12.53125 -8.25 12.296875 -9.203125 11.828125 -10.015625 C 11.359375 -10.828125 10.707031 -11.457031 9.875 -11.90625 C 9.039062 -12.363281 8.066406 -12.59375 6.953125 -12.59375 L 3.890625 -12.59375 Z M 3.890625 -1.71875 "/></g></g></g></svg>